REM DIRINDEX 1\2\6,1\2\7,1\2\8,1\2\9,1\3\10,1\3\11,1\4\12,1\4\13,1\4\14,1\5\15,1\5\16,1\5\17
REM DIRNAME folder01,folder02,folder03,folder04,folder05,folder06,folder07,folder08,folder09,folder10,folder11,folder12,folder13,folder14,folder15,folder16,folder17
TITLE ""
FILE "1400_3_sec05_0416_0432.mp3" MP3
  TRACK 01 AUDIO
    TITLE "0:"
    INDEX 01 00:00:00
  TRACK 02 AUDIO
    TITLE "17:cjc029_5262"
    INDEX 01 00:00:15
  TRACK 03 AUDIO
    TITLE "0:"
    INDEX 01 00:02:47
  TRACK 04 AUDIO
    TITLE "16:cjc029_5263"
    INDEX 01 00:02:57
  TRACK 05 AUDIO
    TITLE "0:"
    INDEX 01 00:03:61
  TRACK 06 AUDIO
    TITLE "17:cjc029_5264"
    INDEX 01 00:04:48
  TRACK 07 AUDIO
    TITLE "0:"
    INDEX 01 00:07:60
  TRACK 08 AUDIO
    TITLE "16:cjc029_5265"
    INDEX 01 00:07:68
  TRACK 09 AUDIO
    TITLE "0:"
    INDEX 01 00:09:02
  TRACK 10 AUDIO
    TITLE "17:cjc029_5266"
    INDEX 01 00:09:59
  TRACK 11 AUDIO
    TITLE "0:"
    INDEX 01 00:10:49
  TRACK 12 AUDIO
    TITLE "16:cjc029_5267"
    INDEX 01 00:10:59
  TRACK 13 AUDIO
    TITLE "0:"
    INDEX 01 00:11:64
  TRACK 14 AUDIO
    TITLE "17:cjc029_5268"
    INDEX 01 00:12:48
  TRACK 15 AUDIO
    TITLE "0:"
    INDEX 01 00:15:38
  TRACK 16 AUDIO
    TITLE "16:cjc029_5269"
    INDEX 01 00:15:44
  TRACK 17 AUDIO
    TITLE "0:"
    INDEX 01 00:16:61
  TRACK 18 AUDIO
    TITLE "17:cjc029_5270"
    INDEX 01 00:17:31
  TRACK 19 AUDIO
    TITLE "0:"
    INDEX 01 00:20:14
  TRACK 20 AUDIO
    TITLE "16:cjc029_5271"
    INDEX 01 00:20:22
  TRACK 21 AUDIO
    TITLE "0:"
    INDEX 01 00:21:47
  TRACK 22 AUDIO
    TITLE "17:cjc029_5272"
    INDEX 01 00:22:32
  TRACK 23 AUDIO
    TITLE "0:"
    INDEX 01 00:23:51
  TRACK 24 AUDIO
    TITLE "16:cjc029_5273"
    INDEX 01 00:23:55
  TRACK 25 AUDIO
    TITLE "0:"
    INDEX 01 00:24:65
  TRACK 26 AUDIO
    TITLE "17:cjc029_5274"
    INDEX 01 00:25:52
  TRACK 27 AUDIO
    TITLE "0:"
    INDEX 01 00:26:62
  TRACK 28 AUDIO
    TITLE "16:cjc029_5275"
    INDEX 01 00:26:67
  TRACK 29 AUDIO
    TITLE "0:"
    INDEX 01 00:28:04
  TRACK 30 AUDIO
    TITLE "17:cjc029_5276"
    INDEX 01 00:28:66
  TRACK 31 AUDIO
    TITLE "0:"
    INDEX 01 00:30:01
  TRACK 32 AUDIO
    TITLE "16:cjc029_5277"
    INDEX 01 00:30:08
  TRACK 33 AUDIO
    TITLE "0:"
    INDEX 01 00:31:22
  TRACK 34 AUDIO
    TITLE "17:cjc029_5278"
    INDEX 01 00:32:09
  TRACK 35 AUDIO
    TITLE "0:"
    INDEX 01 00:33:46
  TRACK 36 AUDIO
    TITLE "16:cjc029_5279"
    INDEX 01 00:33:54
  TRACK 37 AUDIO
    TITLE "0:"
    INDEX 01 00:34:61
  TRACK 38 AUDIO
    TITLE "17:cjc029_5280"
    INDEX 01 00:35:47
  TRACK 39 AUDIO
    TITLE "0:"
    INDEX 01 00:36:44
  TRACK 40 AUDIO
    TITLE "16:cjc029_5281"
    INDEX 01 00:36:48
  TRACK 41 AUDIO
    TITLE "0:"
    INDEX 01 00:37:63
  TRACK 42 AUDIO
    TITLE "17:cjc029_5282"
    INDEX 01 00:38:45
  TRACK 43 AUDIO
    TITLE "0:"
    INDEX 01 00:41:18
  TRACK 44 AUDIO
    TITLE "16:cjc029_5283"
    INDEX 01 00:41:22
  TRACK 45 AUDIO
    TITLE "0:"
    INDEX 01 00:42:23
  TRACK 46 AUDIO
    TITLE "17:cjc029_5284"
    INDEX 01 00:42:70
  TRACK 47 AUDIO
    TITLE "0:"
    INDEX 01 00:44:18
  TRACK 48 AUDIO
    TITLE "16:cjc029_5285"
    INDEX 01 00:44:22
  TRACK 49 AUDIO
    TITLE "0:"
    INDEX 01 00:45:30
  TRACK 50 AUDIO
    TITLE "17:cjc029_5286"
    INDEX 01 00:46:17
  TRACK 51 AUDIO
    TITLE "0:"
    INDEX 01 00:47:34
  TRACK 52 AUDIO
    TITLE "16:cjc029_5287"
    INDEX 01 00:47:40
  TRACK 53 AUDIO
    TITLE "0:"
    INDEX 01 00:48:36
  TRACK 54 AUDIO
    TITLE "17:cjc029_5288"
    INDEX 01 00:49:23
  TRACK 55 AUDIO
    TITLE "0:"
    INDEX 01 00:50:70
  TRACK 56 AUDIO
    TITLE "16:cjc029_5289"
    INDEX 01 00:51:01
  TRACK 57 AUDIO
    TITLE "0:"
    INDEX 01 00:51:73
  TRACK 58 AUDIO
    TITLE "17:cjc029_5290"
    INDEX 01 00:52:59
  TRACK 59 AUDIO
    TITLE "0:"
    INDEX 01 00:53:70
  TRACK 60 AUDIO
    TITLE "16:cjc029_5291"
    INDEX 01 00:54:01
  TRACK 61 AUDIO
    TITLE "0:"
    INDEX 01 00:55:03
  TRACK 62 AUDIO
    TITLE "17:cjc029_5292"
    INDEX 01 00:55:61
  TRACK 63 AUDIO
    TITLE "0:"
    INDEX 01 00:58:18
  TRACK 64 AUDIO
    TITLE "16:cjc029_5293"
    INDEX 01 00:58:24
  TRACK 65 AUDIO
    TITLE "0:"
    INDEX 01 00:59:24
  TRACK 66 AUDIO
    TITLE "17:cjc029_5294"
    INDEX 01 01:00:10
  TRACK 67 AUDIO
    TITLE "0:"
    INDEX 01 01:01:11
  TRACK 68 AUDIO
    TITLE "16:cjc029_5295"
    INDEX 01 01:01:17
  TRACK 69 AUDIO
    TITLE "0:"
    INDEX 01 01:02:28
